<?xml version="1.0" encoding="UTF-8" standalone="no"?>
<!-- Created with Inkscape (http://www.inkscape.org/) -->

<svg
   version="1.1"
   id="svg1"
   width="1024"
   height="425"
   viewBox="0 0 1024 425"
   sodipodi:docname="midgard_logo_main.svg"
   inkscape:version="1.4.2 (f4327f4, 2025-05-13)"
   xmlns:inkscape="http://www.inkscape.org/namespaces/inkscape"
   xmlns:sodipodi="http://sodipodi.sourceforge.net/DTD/sodipodi-0.dtd"
   xmlns="http://www.w3.org/2000/svg"
   xmlns:svg="http://www.w3.org/2000/svg">
  <defs
     id="defs1" />
  <sodipodi:namedview
     id="namedview1"
     pagecolor="#ffffff"
     bordercolor="#000000"
     borderopacity="0.25"
     inkscape:showpageshadow="2"
     inkscape:pageopacity="0.0"
     inkscape:pagecheckerboard="0"
     inkscape:deskcolor="#d1d1d1"
     inkscape:zoom="0.62631431"
     inkscape:cx="292.98389"
     inkscape:cy="198.78198"
     inkscape:window-width="1920"
     inkscape:window-height="1174"
     inkscape:window-x="-11"
     inkscape:window-y="-11"
     inkscape:window-maximized="1"
     inkscape:current-layer="g1" />
  <g
     inkscape:groupmode="layer"
     inkscape:label="Image"
     id="g1">
    <path
       style="fill:#ffffff;stroke:none"
       d="m 250,113 -16,2 c 4.11391,22.15906 4.0448,46.48563 5.03935,69 0.24381,5.5193 3.91657,17.97133 0.3179,22.58102 C 234.55408,212.73364 219.1732,213.94061 212,214 c 5.65753,-14.5825 16.24286,-30.05301 16.96065,-46 1.13518,-25.22012 -32.59752,-53.54221 -57.96065,-49.78625 -17.00729,2.51855 -24.31619,26.48007 -40,29.71527 -4.24613,0.87588 -9.38988,-2.87726 -13,-4.6821 -9.43387,-4.71634 -23.018059,-15.83075 -34,-14.02161 -8.466293,1.39472 -17.148666,10.34958 -24,15.19907 -7.371296,5.21753 -16.80455,10.22525 -22.211418,17.59027 C 13.421528,195.20654 37.534351,229.48166 61,254 h 1 c 4.481064,-3.81927 18.24176,-9.88449 19.082565,-16.04013 C 81.96048,231.53252 68.796516,219.78625 65.00309,215 54.653633,201.94185 48.957256,186.4771 54.359566,170 c 8.734356,-26.63986 41.487907,-17.39465 54.837194,1.03935 4.79531,6.62183 4.13454,16.16507 4.96913,23.96065 1.81734,16.97491 1.88509,35.41302 5.83411,52 6.26302,-1.80426 21.69397,-7.28699 24.88271,-13.27391 2.65399,-4.98293 -1.07592,-16.28281 -1.72762,-21.72609 -2.53085,-21.13861 -9.52226,-49.63687 8.84877,-65.81406 13.72842,-12.08902 43.43117,8.42221 48.29321,22.81406 2.24494,6.64507 -0.23941,15.49403 -2.04245,22 -3.84008,13.85632 -13.80584,27.84024 -15.25462,42 20.26048,0.16774 47.7213,2.94992 57,-21 h 1 c 0.60185,13.97974 17.37729,17.06805 29,21 0,-25.73305 -4.31464,-51.31012 -4.98535,-77 -0.14517,-5.56091 -4.1803,-21.05753 -0.32175,-25.39661 C 269.06296,125.68915 288.68817,127.0174 295,127 c -9.27676,-10.82193 -25.51236,-15 -39,-15 3.34451,-3.49454 6.60861,-7.13904 9.53165,-11 7.12027,-9.404999 -5.98038,-23.242981 -16.4923,-22.743073 -4.80494,0.228516 -7.97754,6.421906 -10.64969,9.743073 -2.40385,2.987732 -6.39273,6.736908 -4.34259,10.910492 C 236.83829,104.59271 245.28728,108.89584 250,113 m 79,8 c -10.83148,9.43283 -20.15979,16.15854 -23.33102,31 -7.95078,37.20982 26.20797,78.71172 65.33102,71.38116 13.68481,-2.56414 26.40878,-13.06115 38,-20.331 C 416.02124,198.64655 423.08481,194.50177 427.20062,187 433.10696,176.23471 433,163.92178 433,152 433,139.72858 431.53024,126.992 421.95987,118.18518 412.04611,109.06238 398.72946,107.39218 386,105.71835 365.20877,102.98447 343.95078,98.899689 323,98 c 0.80533,-3.433258 1.68793,-10.14151 -4.01929,-9.199066 -6.24594,1.031402 -29.98092,20.145266 -22.66205,26.610316 6.30628,5.57056 24.52604,4.9451 32.68134,5.58875 m 204,91 -6,38 c 9.40295,-0.30511 14.09045,-8.74753 20.03857,-15 18.11664,-19.04361 17.94452,-57.50481 17.96143,-83 -25.68298,0 -42.77295,3.39386 -65,17 7.60489,3.19113 18.008,0.38571 26,0.0394 2.95685,-0.12816 8.11963,-0.78282 9.88269,2.27855 1.87543,3.25649 0.30359,11.9415 -0.0524,15.6821 -0.34198,3.5937 -0.0781,9.70364 -3.14813,12.14197 C 524.5719,205.5834 508.83481,197.49208 502,192.70525 481.36099,178.25053 459.54678,164.86502 469.69522,137 c 2.11813,-5.81583 5.1644,-12.79187 11.30554,-15.27161 5.33148,-2.1528 12.47913,-0.90374 17.99924,-0.152 12.62024,1.71868 30.71234,0.61218 41.94061,7.09722 5.04749,2.91526 0.91596,13.09189 6.20752,13.66434 6.74622,0.72983 21.94403,-19.96039 20.00464,-26.2438 C 564.211,106.56308 540.07819,105.86182 532,104.59027 c -11.32336,-1.78235 -27.87326,-5.44583 -39,-1.73688 -6.82895,2.27637 -12.41928,7.84629 -19,10.83411 -6.28241,2.85239 -14.04163,3.0592 -19.95987,6.45215 -8.13596,4.66437 -12.2308,17.37286 -14.61188,25.86035 -7.19656,25.65273 8.63269,42.90414 27.57175,57.57484 9.55594,7.40229 20.64532,14.92408 33,16.25155 12.04523,1.2942 22.18451,-3.32946 33,-7.82639 m 67,-88 h 29 L 599.67126,168.77545 576,182 591,183 564.82642,221 538,248 c 19.97974,-5.75363 38.71759,-18.87013 51.55017,-35 5.7514,-7.22923 14.40692,-27.21103 23.5401,-29.6821 C 623.51819,180.49654 637.23962,184 648,184 c 4.37384,0 9.99292,-0.80647 13.78705,1.85803 10.43481,7.32813 10.37164,26.46598 19.17901,35.57793 3.19373,3.30415 10.71735,3.17894 15.03394,3.47453 18.21521,1.24736 32.95801,-6.72934 43,-21.91049 -10.14349,0.82852 -22.67096,6.80228 -32.78705,2.39661 -6.49737,-2.8297 -9.97851,-17.40606 -12.96606,-23.39661 -8.88306,-17.81195 -16.61615,-36.1875 -25.49378,-54 -3.00415,-6.02762 -5.25531,-15.87009 -10.39044,-20.39661 C 653.96381,104.60733 647.18073,106.14371 643,105.96063 627.51593,105.28253 607.65057,107.73044 600,124 m 314,18 v 1 c -8.78003,3.65549 -17.53589,8.08444 -23.21143,16 -23.88421,33.31105 2.5329,86.86212 42.21143,90.82947 15.5849,1.55829 30.95404,-7.41075 45,-13.02931 8.45844,-3.38349 16.69098,-6.3389 22.4707,-13.80092 7.1333,-9.20955 9.1417,-20.80931 10.9398,-31.99924 1.9194,-11.94458 3.2622,-24.54498 -4.1999,-35 C 999.43848,145.11047 987.11041,140.99789 975,137.00076 954.47778,130.22723 933.58423,124.58197 913,118 c 1.49408,-3.55524 3.00946,-9.71039 -3.01929,-9.62732 -7.08661,0.0977 -19.3529,9.47302 -24.87195,13.72067 -2.52899,1.94641 -4.4931,4.6814 -2.46136,7.77393 4.80603,7.31531 23.37305,9.53625 31.3526,12.13272 m -190,-17 27,3 -3.16974,36 L 743,230 c 5.92438,-1.22607 22.20813,-2.90334 25.97223,-7.72763 4.0141,-5.14473 2.64728,-19.8714 3.11652,-26.27237 1.62921,-22.22565 5.84973,-44.70853 5.91125,-67 5.87579,0.004 11.36371,0.57935 17,2.34723 3.93225,1.2334 7.69434,2.6626 11,5.18518 19.04163,14.53073 1.25208,28.01678 -15,33.76852 -4.38837,1.55307 -13.60394,1.75512 -14.35266,7.74305 -0.95264,7.61871 10.96197,19.27043 15.22613,24.95602 7.98359,10.64479 18.01142,29.54095 32.12653,32.60957 13.46667,2.92766 29.54309,-7.55623 42,-11.60957 l -3,-9 c -5.00952,1.4321 -10.60944,5.21623 -16,3.97223 C 841.80078,217.77238 837.85803,212.86493 834.59027,209 826.09241,198.94916 813.185,186.61772 809,174 831.65924,170.60364 856.91028,146.57895 835.81555,125.17361 819.97003,109.09482 798.21582,111.33594 778,110.94598 758.07764,110.56168 738.66284,107.25848 724,125 m -379.99615,-1.3071 c 4.50851,-1.37186 11.40777,0.91678 15.99615,1.57794 14.00598,2.01822 34.20609,2.32294 41.62192,16.74381 7.5003,14.58511 7.13522,52.7872 -11.62192,58.54245 -26.17621,8.03163 -53.56256,-13.17441 -57.1304,-38.5571 -1.41763,-10.0856 -1.5372,-34.45145 11.13425,-38.3071 M 641,139 l 14,30 -33,-1 c 2.22699,-9.47696 11.86877,-22.46475 19,-29 m 287,8.47375 c 6.21399,-1.3995 15.16705,3.58191 21,5.52625 25.24188,8.41397 39.73804,19.37833 32.625,48 -2.64478,10.64218 -6.46606,26.50769 -18.625,29.31944 C 934.51654,236.90625 910.3783,207.97757 911.01465,182 911.26703,171.69574 915.97272,150.18256 928,147.47375 M 282,281 v 1 l 18,1 c -6.26273,15.3476 -7.96124,34.35706 5.04013,46.90662 14.10431,13.61419 50.36124,17.36734 60.76157,-3.94135 1.59057,-3.25885 -0.1532,-6.04034 -3.82099,-5.51312 -6.48965,0.93292 -10.99002,6.44321 -17.98071,6.46838 -16.7793,0.0604 -39.00754,-17.71307 -31.21063,-35.91977 4.99795,-11.67077 18.04071,-7.20205 28.21063,-8.1705 16.07977,-1.53125 35.09888,-7.01776 46,-19.83026 l -42,7.95987 -25.98535,-1.108 -10.0293,-3.73767 L 282,281 m 160,0 v 1 l 18,1 c -7.79236,14.78836 -5.08057,29.37558 1,44 -24.80548,3.1322 -24.74207,-41.79324 -40.39044,-54.39661 C 410.11694,264.15253 388.7374,274.84781 384,285 l 16,-1 c -5.4838,17.32907 -16.31335,26.56702 -32,34 v 1 h 12 l -33,42 c 12.2175,-3.51965 25.40729,-11.35883 33.69986,-21.00076 4.96887,-5.77741 9.45334,-18.68863 17.30399,-20.68134 6.14144,-1.55887 22.02603,-2.27862 26.35882,2.83023 4.14075,4.88242 5.60495,15.53556 11.85028,18.24848 12.39673,5.38504 20.42319,-5.36298 30.78705,-6.70911 4.77975,-0.62082 11.27783,4.87616 16,6.15356 11.785,3.18796 38.90332,-0.54437 43.14893,-14.86114 1.26361,-4.26114 -2.97059,-5.28253 -6.15278,-4.13269 -4.91363,1.77542 -8.58908,5.31735 -13.99615,5.9668 -14.55365,1.7481 -33.02744,-10.93192 -34.81406,-25.81403 -0.71203,-5.93121 1.17011,-13.80334 6.85727,-16.82098 8.22122,-4.36225 23.57251,-1.10636 32.95679,-2.61731 13.53693,-2.17954 24.83972,-10.03888 36,-17.56171 l -36,6.71451 -31.98535,-0.86188 -10.0293,-3.77393 L 442,281 m 113,-11 c -3.17719,-10.02661 -28.25043,6.15872 -32,12 l 18,1 c -10.68097,18.78995 -5.46332,43.26843 14,53.50696 14.06555,7.39905 42.92279,6.27594 50.95288,-10.517 1.55896,-3.26016 -0.35248,-6.10745 -3.97217,-5.51309 -5.73004,0.94085 -9.92328,5.7373 -15.98071,6.34491 -14.99689,1.50427 -36.19659,-13.45325 -34.44519,-29.82178 0.55804,-5.21558 3.20483,-11.43585 8.44904,-13.39661 9.03234,-3.3771 22.24493,-0.45971 31.99615,-2.04168 C 605.33954,279.39764 616.93652,271.3208 628,264 L 602,269.69983 555,270 m -244,-1 -2,4 h 56 v 1 c -6.84924,2.64218 -13.58115,4.80359 -21,4.98535 -10.35574,0.25369 -24.2688,-3.06982 -31.60648,6.03317 -14.52026,18.01358 6.89576,40.53397 24.60648,44.3125 10.39575,2.2179 16.9823,-2.12075 26,-6.33102 -9.83286,20.16641 -41.77744,17.72382 -55.69986,4.38428 -9.47144,-9.07489 -10.66595,-24.30261 -6.85648,-36.38043 C 302.3298,285.02393 307.45541,282.763 312,279 h -19 l 18,-10 m 160,0 -2,4 h 56 v 1 c -6.75177,2.60089 -13.69766,4.80597 -21,4.98535 -10.44263,0.2565 -24.2627,-3.14749 -31.60648,6.03009 -14.75033,18.4336 7.30362,41.22009 25.60648,44.52005 9.84848,1.77567 16.47711,-2.55618 25,-6.53549 -11.11823,22.75195 -49.84039,17.36154 -61.04474,-2.00076 -5.00201,-8.64402 -5.8761,-25.31076 -0.1011,-33.89432 C 464.15652,283.68286 468.32874,282.11871 471,279 h -18 l 18,-10 m 80,0 -2,4 h 56 v 1 c -10.11102,4.70734 -20.05609,5 -31,5 -7.37726,0 -15.15747,-1.11511 -20.4707,5.10492 -15.81378,18.51276 5.79596,41.41589 24.4707,45.37732 10.26758,2.17804 17.06195,-2.63077 26,-6.48224 -11.93243,22.13907 -50.04181,18.14178 -61.46686,-2 -4.81372,-8.48633 -5.604,-24.41241 -0.44366,-32.95679 C 544.4519,284.13156 548.96259,282.29059 552,279 h -18 l 17,-10 m 134,46 c 12.87347,39.49646 72.0943,31.62396 75.82947,-9 C 763.01062,282.27747 738.36145,264.21381 716,269.53241 702.16614,272.82275 691.77966,283.8053 686,296 681.10565,285.01291 675.82623,276.12976 664,271.46451 638.26624,261.31293 608.84424,282.70557 610.03937,310 610.9502,330.80103 630.92487,345.19141 651,341.6713 664.56409,339.29288 679.27704,327.00525 685,315 M 645,272.3009 C 669.45764,268.6886 689.71753,292.68872 680.87036,316 676.88635,326.49753 659.85944,337.09586 649,338.69907 630.50806,341.42911 611.98334,326.09558 613.09338,307 614.08972,289.86005 627.71246,274.85425 645,272.3009 m 74,0.0278 C 743.71979,267.99414 764.38861,292.57147 755.43671,316 751.49725,326.31012 734.65765,336.89468 724,338.67438 699.27216,342.80365 682.93463,318.15518 689.77393,296 693.33209,284.47363 707.2074,274.39651 719,272.3287 M 463,330 c -4.56973,6.15002 -20.5578,13.11502 -27.03394,5.6821 -4.64294,-5.32889 -5.91055,-15.95603 -12.17901,-19.65433 -5.11453,-3.01749 -21.07926,-2.14816 -26.78629,-0.70987 -6.06982,1.52973 -9.15091,8.9101 -12.3341,13.6821 -5.4029,8.09961 -11.71512,15.7406 -20.66666,20 l 22,-33 h -3 v -1 c 10.11469,-8.61179 17.70517,-21.71237 23,-34 h -14 c 4.58679,-5.84021 21.00525,-11.56845 27.03473,-4.6821 9.62875,10.99713 14.23926,27.99637 21.38965,40.6821 2.13427,3.7865 4.20163,10.57089 7.96606,12.97223 3.91306,2.49612 10.36029,0.56479 14.60956,0.0278 m 168.21375,-48.97223 c -5.80408,3.43897 -6.19397,14.06763 -6.21296,19.97223 -0.0616,19.15936 18.59497,41.04367 38.98377,28.0054 25.34601,-16.20828 -7.44031,-62.98611 -32.77081,-47.97763 m 74.89428,0 c -5.69568,3.18884 -5.88397,12.30115 -6.51697,17.97223 -2.29187,20.53235 17.67402,41.52716 38.3935,30.32639 C 745.22772,325.4108 746,317.41321 746,310 c 0,-17.64923 -20.49213,-39.83356 -39.89197,-28.97223 m -71.99927,2.57562 c 16.74457,-6.93673 33.82172,9.90766 33.89045,25.39661 0.0332,7.48972 -0.10077,14.97604 -8.00306,18.23535 C 642.96332,334.26056 628.6839,319.35742 628.0401,303 c -0.21191,-5.3847 0.17267,-16.9541 6.06866,-19.39661 m 74.99616,0 c 16.04925,-6.57263 33.17596,9.29352 33.85571,24.39661 0.36121,8.02512 -0.66131,16.10681 -8.96142,19.51697 C 716.48932,334.71106 703,317.8942 703,302 c 0,-5.61316 -0.20648,-15.81189 6.10492,-18.39661 M 410,288 397,310 h 25 l -12,-22 m 1,7 6,12 h -14 l 6,-12 z"
       id="path70" />
  </g>
</svg>
