<?xml version="1.0" encoding="UTF-8" standalone="no"?>
<!-- Created with Inkscape (http://www.inkscape.org/) -->

<svg
   version="1.1"
   id="svg1"
   width="1005.3119"
   height="182.75502"
   viewBox="0 0 1005.3119 182.75502"
   sodipodi:docname="midgard_single_logo_main.svg"
   inkscape:version="1.4.2 (f4327f4, 2025-05-13)"
   xmlns:inkscape="http://www.inkscape.org/namespaces/inkscape"
   xmlns:sodipodi="http://sodipodi.sourceforge.net/DTD/sodipodi-0.dtd"
   xmlns="http://www.w3.org/2000/svg"
   xmlns:svg="http://www.w3.org/2000/svg">
  <defs
     id="defs1" />
  <sodipodi:namedview
     id="namedview1"
     pagecolor="#ffffff"
     bordercolor="#000000"
     borderopacity="0.25"
     inkscape:showpageshadow="2"
     inkscape:pageopacity="0.0"
     inkscape:pagecheckerboard="0"
     inkscape:deskcolor="#d1d1d1"
     inkscape:zoom="0.79931766"
     inkscape:cx="372.19245"
     inkscape:cy="377.19672"
     inkscape:window-width="1920"
     inkscape:window-height="1174"
     inkscape:window-x="-11"
     inkscape:window-y="-11"
     inkscape:window-maximized="1"
     inkscape:current-layer="g1" />
  <g
     inkscape:groupmode="layer"
     inkscape:label="Image"
     id="g1"
     transform="translate(-7.9438141,-9.6066585)">
    <path
       style="fill:#0a0a0a;stroke:none;stroke-width:1.03002"
       d="m 234.84229,45.746937 -16.32506,2.079641 c 4.19749,23.041454 4.12698,48.336729 5.14173,71.747642 0.24876,5.73908 3.99614,18.68696 0.32436,23.48021 -4.90075,6.39763 -20.59411,7.65266 -27.91304,7.71441 5.77247,-15.16318 16.57285,-31.24974 17.30522,-47.83175 1.15825,-26.224412 -33.25976,-55.674313 -59.13816,-51.768787 -17.35281,2.618841 -24.8102,27.53453 -40.81264,30.898558 -4.33239,0.910758 -9.58064,-2.991835 -13.2641,-4.868545 C 90.535063,72.294167 76.674899,60.737171 65.469852,62.618353 56.831562,64.068612 47.972792,73.380062 40.982272,78.422663 33.461218,83.84796 23.836324,89.055092 18.319609,96.713393 -6.5424783,131.22701 18.060214,166.867 42.002588,192.36168 h 1.020316 C 47.595,188.39032 61.63526,182.08358 62.493152,175.68282 63.388897,168.99952 49.9575,156.78551 46.087004,151.80866 35.527286,138.23053 29.71519,122.14996 35.227252,105.01672 c 8.911795,-27.700676 42.330771,-18.087313 55.951252,1.08074 4.892741,6.88552 4.218547,16.80878 5.070093,24.91479 1.85426,17.65086 1.923387,36.82319 5.952633,54.07068 6.39026,-1.8761 22.1347,-7.57716 25.38822,-13.80249 2.70791,-5.18135 -1.09778,-16.9312 -1.76272,-22.59124 -2.58226,-21.98037 -9.71571,-51.61345 9.02854,-68.43483 14.00733,-12.570415 44.31351,8.75759 49.27433,23.72253 2.29055,6.90969 -0.24427,16.11102 -2.08394,22.87606 -3.9181,14.40809 -14.08632,28.94887 -15.56454,43.67248 20.67209,0.17442 48.6908,3.06739 58.15801,-21.83624 h 1.02031 c 0.61408,14.53643 17.73033,17.74772 29.58916,21.83624 0,-26.75776 -4.40229,-53.35333 -5.08663,-80.066205 -0.14812,-5.782351 -4.26523,-21.89606 -0.32829,-26.407926 4.45884,-5.109929 24.48276,-3.728787 30.92282,-3.74688 -9.46523,-11.252869 -26.03067,-15.597313 -39.79232,-15.597313 3.41246,-3.633696 6.74287,-7.423323 9.72529,-11.43803 7.26493,-9.779515 -6.10187,-24.1685362 -16.82735,-23.6487297 -4.90256,0.2376198 -8.13961,6.6776367 -10.86605,10.1310587 -2.45268,3.106704 -6.5226,7.005179 -4.43081,11.344955 2.84792,5.908491 11.46856,10.382975 16.27703,14.650567 m 80.60494,8.318567 c -11.05153,9.808453 -20.56935,16.801987 -23.805,32.234447 -8.11231,38.691549 26.7404,81.846089 66.65827,74.223619 13.96283,-2.66625 26.9453,-13.58126 38.772,-21.1406 7.16388,-4.57896 14.37096,-8.88879 18.57038,-16.68929 6.02633,-11.19397 5.9172,-23.997213 5.9172,-36.393729 0,-12.760079 -1.49962,-26.003841 -11.26442,-35.161356 -10.11517,-9.486078 -23.70235,-11.222787 -36.69042,-12.96327 -21.21362,-2.842746 -42.90349,-7.090185 -64.2799,-8.025702 0.82169,-3.569975 1.72222,-10.545353 -4.10095,-9.565385 -6.37283,1.072472 -30.59,20.947473 -23.12244,27.669967 6.43439,5.792384 25.0243,5.142018 33.34528,5.811299 m 208.14443,94.623696 -6.12189,39.5132 c 9.59398,-0.31726 14.37671,-9.09587 20.44567,-15.59732 18.48469,-19.80194 18.30908,-59.7947 18.32633,-86.305129 -26.20475,0 -43.64192,3.529007 -66.32053,17.676949 7.75939,3.31821 18.37385,0.40107 26.52821,0.041 3.01692,-0.13326 8.28459,-0.81399 10.08347,2.36929 1.91353,3.38616 0.30975,12.41702 -0.0535,16.30657 -0.34893,3.73681 -0.0797,10.09005 -3.21208,12.62548 -8.27503,6.69788 -24.33183,-1.71565 -31.3055,-6.69309 -21.05831,-15.03032 -43.31569,-28.948852 -32.96108,-57.923482 2.16117,-6.047422 5.26932,-13.301254 11.53523,-15.879739 5.43979,-2.238527 12.73265,-0.939728 18.3649,-0.158053 12.87664,1.787119 31.33629,0.636558 42.79267,7.379838 5.15004,3.031348 0.93457,13.61322 6.33363,14.208466 6.88328,0.758892 22.38984,-20.755231 20.41105,-27.288852 -3.00153,-9.910605 -27.62462,-10.63979 -35.86692,-11.961974 -11.55341,-1.853325 -28.43953,-5.662688 -39.79232,-1.806044 -6.96769,2.367017 -12.67159,8.158736 -19.386,11.265534 -6.41004,2.965974 -14.3269,3.18102 -20.36537,6.70908 -8.30125,4.850109 -12.47928,18.064662 -14.90873,26.890132 -7.34277,26.674244 8.80807,44.612614 28.13189,59.867514 9.75007,7.69706 21.06474,15.51837 33.67042,16.89871 12.28994,1.34573 22.63521,-3.46205 33.67042,-8.13805 m 68.36116,-91.504234 h 29.58916 l -29.92458,46.558444 -24.15216,13.75117 15.30474,1.03982 -26.70532,39.51319 -27.37142,28.07516 c 20.38565,-5.98274 39.50417,-19.62155 52.59746,-36.39373 5.86824,-7.5171 14.6996,-28.29459 24.01833,-30.86406 10.63977,-2.93371 24.63997,0.70926 35.61895,0.70926 4.4627,0 10.19596,-0.83859 14.06714,1.93202 10.64679,7.61994 10.5823,27.51987 19.56863,36.99467 3.25859,3.43572 10.93514,3.30553 15.33943,3.61289 18.58526,1.29703 33.62757,-6.99731 43.87358,-22.78299 -10.34957,0.86152 -23.13158,7.07316 -33.45319,2.49205 -6.6294,-2.94238 -10.18123,-18.09919 -13.22952,-24.32828 C 678.03055,98.97337 670.14035,79.866089 661.08239,61.34428 658.01716,55.076635 655.72033,44.842229 650.4808,40.135459 647.01295,37.020093 640.09204,38.617653 635.82637,38.427283 620.02773,37.72218 599.75879,40.267568 591.95279,57.184996 M 912.332,75.901772 v 1.039821 c -8.95847,3.801055 -17.89216,8.40637 -23.68306,16.637134 -24.36943,34.637523 2.58436,90.321043 43.06906,94.446373 15.90152,1.62035 31.58286,-7.70585 45.91421,-13.54814 8.63024,-3.51823 17.02999,-6.59132 22.92719,-14.35049 7.2782,-9.57628 9.3274,-21.63795 11.162,-33.27348 1.9584,-12.42022 3.3285,-25.52238 -4.2852,-36.393725 C 999.50618,79.136074 986.92773,74.859727 974.5713,70.703428 953.63207,63.66017 932.3141,57.790111 911.31172,50.946041 c 1.52435,-3.696813 3.07053,-10.097066 -3.08064,-10.010688 -7.23057,0.10159 -19.74607,9.850244 -25.3773,14.267039 -2.58038,2.023918 -4.58438,4.867817 -2.5113,8.083495 4.90364,7.606612 23.84784,9.915992 31.98955,12.615855 m -193.86,-17.676955 27.54852,3.119463 -3.23419,37.433552 -4.92833,68.628178 c 6.04465,-1.2749 22.65927,-3.01896 26.49984,-8.03535 4.09565,-5.3496 2.70108,-20.6627 3.17982,-27.31856 1.66229,-23.1107 5.96854,-46.488863 6.03139,-69.667999 5.99507,0.0042 11.59456,0.60242 17.34537,2.440699 4.01208,1.282515 7.85061,2.768627 11.22347,5.391658 19.42845,15.109357 1.27744,29.132433 -15.30473,35.113212 -4.47756,1.61491 -13.88038,1.82501 -14.64429,8.05138 -0.97195,7.9221 11.1847,20.0378 15.53543,25.94979 8.14579,11.06868 18.37732,30.7173 32.77928,33.90812 13.74018,3.04424 30.14319,-7.85713 42.85326,-12.07188 l -3.06095,-9.35839 c -5.11137,1.48913 -10.82504,5.42395 -16.32505,4.13041 -5.30493,-1.24763 -9.32773,-6.3505 -12.66191,-10.36933 -8.67044,-10.45107 -21.84007,-23.27356 -26.11009,-36.39373 C 828.31841,105.6444 854.0824,80.66303 832.55915,58.405311 816.39173,41.686249 794.19558,44.016612 773.56908,43.611124 753.24194,43.211521 733.43271,39.776784 718.47203,58.224787 M 330.7559,56.865637 c 4.6001,-1.426488 11.63953,0.953287 16.32113,1.640775 14.29052,2.098588 34.90101,2.415442 42.4675,17.410564 7.65267,15.165902 7.28018,54.889234 -11.85803,60.873664 -26.708,8.35145 -54.65073,-13.69903 -58.29105,-40.09248 -1.44643,-10.487218 -1.56843,-35.823337 11.36045,-39.832523 m 303.02987,15.916643 14.28446,31.19462 -33.67046,-1.03981 c 2.27223,-9.854346 12.10989,-23.359321 19.386,-30.15481 m 292.83068,8.811182 c 6.34014,-1.455229 15.47513,3.724545 21.42663,5.74631 25.75461,8.749022 40.54531,20.149988 33.28781,49.911398 -2.69853,11.06596 -6.59747,27.56325 -19.00338,30.48697 -29.06217,6.8491 -53.69076,-23.23154 -53.04153,-50.24356 0.25753,-10.71459 5.05883,-33.084441 17.33047,-35.901118"
       id="path70"
       sodipodi:nodetypes="ccsscssscsscccssssscsssssccccssccssssccssssssscsscccsccssscssssssssssssssccccccccsssssscsssssccccsssssscssscccccsscssssssccsscssccssssccccccssssc" />
  </g>
</svg>
